<svg width="24" height="24" viewBox="0 0 24 24" fill="none" xmlns="http://www.w3.org/2000/svg">
<path d="M11.975 20.286C5.06994 20.286 1.20313 12.7365 1.019 12.3683C0.926934 12.1841 0.926934 11.8159 1.019 11.6317C1.20313 11.2635 5.06994 3.71399 11.975 3.71399C18.88 3.71399 22.7468 11.2635 22.9309 11.6317C23.023 11.9079 23.023 12.1841 22.9309 12.4603C22.7468 12.7365 18.88 20.286 11.975 20.286ZM2.86034 12C3.68894 13.4731 7.00334 18.4447 11.975 18.4447C16.9466 18.4447 20.1689 13.4731 21.0896 12C20.261 10.5269 16.9466 5.55533 11.975 5.55533C7.00334 5.55533 3.78101 10.5269 2.86034 12Z" fill="#464D54"/>
<path d="M11.9749 15.6827C9.94944 15.6827 8.29224 14.0255 8.29224 12C8.29224 9.97452 9.94944 8.31732 11.9749 8.31732C14.0004 8.31732 15.6576 9.97452 15.6576 12C15.6576 14.0255 14.0004 15.6827 11.9749 15.6827ZM11.9749 10.1587C10.9622 10.1587 10.1336 10.9873 10.1336 12C10.1336 13.0127 10.9622 13.8413 11.9749 13.8413C12.9876 13.8413 13.8162 13.0127 13.8162 12C13.8162 10.9873 12.9876 10.1587 11.9749 10.1587Z" fill="#464D54"/>
</svg>
