<svg width="20" height="20" viewBox="0 0 20 20"  xmlns="http://www.w3.org/2000/svg">
<path d="M9.19571 0.0259113C6.45223 0.317217 4.13918 1.49113 2.44788 3.45635C1.2044 4.89983 0.400052 6.652 0.100052 8.56504C0.00874805 9.17809 -0.00429543 10.6911 0.0783133 11.2824C0.239183 12.3868 0.547879 13.4042 1.02179 14.3694C2.50875 17.4129 5.3044 19.4303 8.71745 19.9216C9.30875 20.0042 10.8218 19.9911 11.4348 19.8998C15.0609 19.3346 18.0001 16.9824 19.3261 13.5911C19.5609 12.9955 19.7914 12.1303 19.9001 11.4346C20.0174 10.6868 20.0044 9.21722 19.8783 8.45635C19.5783 6.69113 18.8827 5.11722 17.8044 3.76069C17.474 3.33895 16.7088 2.57374 16.287 2.23461C14.9088 1.12156 13.2261 0.378086 11.4783 0.108521C11.0392 0.0433025 9.55657 -0.0132179 9.19571 0.0259113ZM14.3479 5.62156C14.8783 5.89983 15.0261 6.59113 14.6435 7.02591C14.5696 7.10852 14.4348 7.21722 14.3435 7.26504C14.1827 7.3433 14.0392 7.34765 8.96092 7.34765H3.74353L3.86092 7.09548C3.96092 6.88243 3.97831 6.79113 3.97831 6.43461C3.97831 6.07809 3.96092 5.98678 3.86092 5.76939L3.74353 5.52156H8.95223H13.9489C14.0881 5.52156 14.2251 5.55591 14.3479 5.62156ZM15.9566 7.91722C16.2479 7.98243 16.4609 8.152 16.5914 8.42157C16.6914 8.61722 16.7044 8.69113 16.6827 8.89548C16.6522 9.19113 16.5044 9.43026 16.2522 9.59548C16.1331 9.67487 15.9933 9.71741 15.8502 9.71776L10.8218 9.73026L5.56962 9.73896L5.68701 9.49113C5.79136 9.26939 5.8044 9.18678 5.8044 8.80417C5.80005 8.36939 5.79136 8.33896 5.57397 7.89983C5.54788 7.852 15.7261 7.86504 15.9566 7.91722ZM14.2218 10.3085C14.687 10.465 14.9522 10.9607 14.8261 11.4346C14.7522 11.7216 14.4305 12.0172 14.1348 12.0824C13.9783 12.1172 12.3783 12.1303 8.82614 12.1303C6.02614 12.1303 3.73918 12.1216 3.73918 12.1129C3.73918 12.1042 3.79136 11.9824 3.86092 11.8433C3.96092 11.6216 3.97831 11.5346 3.97831 11.1737C3.97831 10.7607 3.96527 10.7172 3.74788 10.2911C3.72179 10.239 14.0522 10.252 14.2218 10.3085ZM16.2914 12.8085C16.3827 12.8824 16.5001 13.0085 16.5522 13.0868C16.8435 13.5085 16.6566 14.1346 16.174 14.3781C16.0483 14.4438 15.9086 14.4781 15.7668 14.4781H10.774H5.56962L5.68701 14.2259C5.79136 14.0085 5.8044 13.9259 5.8044 13.5433C5.8044 13.1563 5.79136 13.0824 5.68701 12.8781L5.56962 12.652L10.8435 12.6607L15.9052 12.6732C16.0455 12.6735 16.1815 12.7212 16.2914 12.8085Z" />
</svg>
