<svg width="255" height="251" viewBox="0 0 255 251" fill="none" xmlns="http://www.w3.org/2000/svg">
<path d="M243.774 129.127C243.774 195.821 189.897 249.885 123.441 249.885C56.9837 249.885 3.10681 195.821 3.10681 129.127C3.10681 62.4326 56.9837 8.36914 123.441 8.36914C189.897 8.36914 243.774 62.4326 243.774 129.127Z" fill="#F7F9FF" stroke="#C4CEF0"/>
<path d="M54.7712 37.6426H188.63C196.529 37.6426 202.966 43.9362 203.229 51.803H40.1722C40.4348 43.9362 46.8721 37.6426 54.7712 37.6426Z" fill="#D6DFFF" stroke="#C4CEF0"/>
<path d="M40.1638 51.332H203.237V176.231C203.237 181.675 201.082 186.895 197.247 190.743C193.412 194.591 188.211 196.753 182.789 196.753H60.6121C55.1895 196.753 49.9885 194.591 46.1536 190.743C42.3186 186.895 40.1638 181.675 40.1638 176.231V51.332Z" fill="white" stroke="#C4CEF0"/>
<path d="M175.534 66.6699H67.9201C65.679 66.6699 63.8622 68.4911 63.8622 70.7377C63.8622 72.9842 65.679 74.8054 67.9201 74.8054H175.534C177.775 74.8054 179.592 72.9842 179.592 70.7377C179.592 68.4911 177.775 66.6699 175.534 66.6699Z" fill="#AABAF3"/>
<path d="M175.534 101.234H67.9201C65.679 101.234 63.8622 103.056 63.8622 105.302C63.8622 107.549 65.679 109.37 67.9201 109.37H175.534C177.775 109.37 179.592 107.549 179.592 105.302C179.592 103.056 177.775 101.234 175.534 101.234Z" fill="#AABAF3"/>
<path d="M175.534 135.801H67.9201C65.679 135.801 63.8622 137.622 63.8622 139.869C63.8622 142.115 65.679 143.936 67.9201 143.936H175.534C177.775 143.936 179.592 142.115 179.592 139.869C179.592 137.622 177.775 135.801 175.534 135.801Z" fill="#AABAF3"/>
<path d="M175.534 170.363H67.9201C65.679 170.363 63.8622 172.184 63.8622 174.431C63.8622 176.678 65.679 178.499 67.9201 178.499H175.534C177.775 178.499 179.592 176.678 179.592 174.431C179.592 172.184 177.775 170.363 175.534 170.363Z" fill="#AABAF3"/>
<path d="M9.88887 128.887H67.1915C71.5172 128.887 75.0269 132.406 75.0269 136.751V218.944C75.0269 223.289 71.5172 226.808 67.1915 226.808H9.88887C5.56315 226.808 2.05347 223.289 2.05347 218.944V136.751C2.05347 132.406 5.56315 128.887 9.88887 128.887Z" fill="#F7F9FF" stroke="#C4CEF0"/>
<path d="M167.021 0.5H230.313C232.985 0.5 235.154 2.6738 235.154 5.35902V35.2126C235.154 37.8978 232.985 40.0716 230.313 40.0716H167.021C164.349 40.0716 162.18 37.8978 162.18 35.2126V5.35902C162.18 2.6738 164.349 0.5 167.021 0.5Z" fill="#F7F9FF" stroke="#C4CEF0"/>
<path d="M60.797 169.504H16.2829C14.784 169.504 13.5688 170.723 13.5688 172.227V172.236C13.5688 173.74 14.784 174.96 16.2829 174.96H60.797C62.2959 174.96 63.511 173.74 63.511 172.236V172.227C63.511 170.723 62.2959 169.504 60.797 169.504Z" fill="#E7ECFF"/>
<path d="M60.8222 207.895H16.6907C15.2047 207.895 14 209.076 14 210.533V210.542C14 211.999 15.2047 213.18 16.6907 213.18H60.8222C62.3083 213.18 63.513 211.999 63.513 210.542V210.533C63.513 209.076 62.3083 207.895 60.8222 207.895Z" fill="#E7ECFF"/>
<path d="M60.8222 187.809H16.6907C15.2047 187.809 14 188.99 14 190.447V190.456C14 191.913 15.2047 193.094 16.6907 193.094H60.8222C62.3083 193.094 63.513 191.913 63.513 190.456V190.447C63.513 188.99 62.3083 187.809 60.8222 187.809Z" fill="#E7ECFF"/>
<path d="M32.5587 141.078H19.5506C16.6691 141.078 14.3333 143.422 14.3333 146.314V149.936C14.3333 152.828 16.6691 155.172 19.5506 155.172H32.5587C35.4402 155.172 37.776 152.828 37.776 149.936V146.314C37.776 143.422 35.4402 141.078 32.5587 141.078Z" fill="#E7ECFF"/>
<path d="M177.301 26.4433C180.692 26.4433 183.441 23.6849 183.441 20.2822C183.441 16.8795 180.692 14.1211 177.301 14.1211C173.91 14.1211 171.162 16.8795 171.162 20.2822C171.162 23.6849 173.91 26.4433 177.301 26.4433Z" fill="#AABAF3"/>
<path d="M199.242 26.4433C202.633 26.4433 205.382 23.6849 205.382 20.2822C205.382 16.8795 202.633 14.1211 199.242 14.1211C195.851 14.1211 193.103 16.8795 193.103 20.2822C193.103 23.6849 195.851 26.4433 199.242 26.4433Z" fill="#AABAF3"/>
<path d="M221.183 26.4433C224.573 26.4433 227.322 23.6849 227.322 20.2822C227.322 16.8795 224.573 14.1211 221.183 14.1211C217.792 14.1211 215.043 16.8795 215.043 20.2822C215.043 23.6849 217.792 26.4433 221.183 26.4433Z" fill="#AABAF3"/>
<mask id="path-17-inside-1_1782_17180" fill="white">
<path fill-rule="evenodd" clip-rule="evenodd" d="M188.987 190.595L204.536 173.393L248.365 213.288L248.363 213.29L250.704 215.421C252.977 217.489 254.337 220.379 254.486 223.454C254.636 226.529 253.562 229.538 251.5 231.818C249.439 234.098 246.56 235.464 243.496 235.613C240.431 235.763 237.433 234.686 235.161 232.617L232.82 230.486L232.816 230.49L232.815 230.49L188.987 190.595Z"/>
</mask>
<path fill-rule="evenodd" clip-rule="evenodd" d="M188.987 190.595L204.536 173.393L248.365 213.288L248.363 213.29L250.704 215.421C252.977 217.489 254.337 220.379 254.486 223.454C254.636 226.529 253.562 229.538 251.5 231.818C249.439 234.098 246.56 235.464 243.496 235.613C240.431 235.763 237.433 234.686 235.161 232.617L232.82 230.486L232.816 230.49L232.815 230.49L188.987 190.595Z" fill="#D6DFFF"/>
<path d="M204.536 173.393L205.209 172.653L204.467 171.978L203.794 172.722L204.536 173.393ZM188.987 190.595L188.245 189.925L187.577 190.664L188.314 191.335L188.987 190.595ZM248.365 213.288L249.107 213.958L249.775 213.219L249.038 212.548L248.365 213.288ZM248.363 213.29L247.621 212.619L246.953 213.359L247.69 214.03L248.363 213.29ZM250.704 215.421L250.031 216.16H250.031L250.704 215.421ZM254.486 223.454L253.488 223.502V223.502L254.486 223.454ZM251.5 231.818L250.759 231.147H250.759L251.5 231.818ZM243.496 235.613L243.544 236.612L243.496 235.613ZM235.161 232.617L235.834 231.878V231.878L235.161 232.617ZM232.82 230.486L233.493 229.747L232.751 229.071L232.078 229.816L232.82 230.486ZM232.816 230.49L232.143 231.23L232.885 231.906L233.558 231.161L232.816 230.49ZM232.815 230.49L233.488 229.75L233.488 229.75L232.815 230.49ZM203.794 172.722L188.245 189.925L189.729 191.266L205.278 174.063L203.794 172.722ZM249.038 212.548L205.209 172.653L203.863 174.132L247.692 214.027L249.038 212.548ZM249.105 213.961L249.107 213.958L247.623 212.617L247.621 212.619L249.105 213.961ZM247.69 214.03L250.031 216.16L251.377 214.681L249.036 212.551L247.69 214.03ZM250.031 216.16C252.107 218.05 253.351 220.691 253.488 223.502L255.485 223.405C255.323 220.067 253.846 216.928 251.377 214.681L250.031 216.16ZM253.488 223.502C253.624 226.314 252.642 229.064 250.759 231.147L252.242 232.489C254.481 230.012 255.647 226.744 255.485 223.405L253.488 223.502ZM250.759 231.147C248.875 233.231 246.245 234.478 243.447 234.615L243.544 236.612C246.875 236.449 250.003 234.966 252.242 232.489L250.759 231.147ZM243.447 234.615C240.648 234.752 237.91 233.767 235.834 231.878L234.488 233.357C236.956 235.604 240.214 236.775 243.544 236.612L243.447 234.615ZM235.834 231.878L233.493 229.747L232.147 231.226L234.488 233.357L235.834 231.878ZM233.558 231.161L233.562 231.157L232.078 229.816L232.074 229.82L233.558 231.161ZM232.142 231.229L232.143 231.23L233.489 229.751L233.488 229.75L232.142 231.229ZM188.314 191.335L232.142 231.229L233.488 229.75L189.66 189.856L188.314 191.335Z" fill="#C4CEF0" mask="url(#path-17-inside-1_1782_17180)"/>
<mask id="path-19-inside-2_1782_17180" fill="white">
<path fill-rule="evenodd" clip-rule="evenodd" d="M220.969 144.919C220.969 180.908 191.896 210.082 156.034 210.082C120.171 210.082 91.0981 180.908 91.0981 144.919C91.0981 108.93 120.171 79.7559 156.034 79.7559C191.896 79.7559 220.969 108.93 220.969 144.919ZM211.008 144.919C211.008 175.387 186.395 200.087 156.033 200.087C125.672 200.087 101.058 175.387 101.058 144.919C101.058 114.45 125.672 89.751 156.033 89.751C186.395 89.751 211.008 114.45 211.008 144.919Z"/>
</mask>
<path fill-rule="evenodd" clip-rule="evenodd" d="M220.969 144.919C220.969 180.908 191.896 210.082 156.034 210.082C120.171 210.082 91.0981 180.908 91.0981 144.919C91.0981 108.93 120.171 79.7559 156.034 79.7559C191.896 79.7559 220.969 108.93 220.969 144.919ZM211.008 144.919C211.008 175.387 186.395 200.087 156.033 200.087C125.672 200.087 101.058 175.387 101.058 144.919C101.058 114.45 125.672 89.751 156.033 89.751C186.395 89.751 211.008 114.45 211.008 144.919Z" fill="#D6DFFF"/>
<path d="M156.034 211.082C192.452 211.082 221.969 181.457 221.969 144.919H219.969C219.969 180.359 191.341 209.082 156.034 209.082V211.082ZM90.0981 144.919C90.0981 181.457 119.615 211.082 156.034 211.082V209.082C120.726 209.082 92.0981 180.359 92.0981 144.919H90.0981ZM156.034 78.7559C119.615 78.7559 90.0981 108.381 90.0981 144.919H92.0981C92.0981 109.479 120.726 80.7559 156.034 80.7559V78.7559ZM221.969 144.919C221.969 108.381 192.452 78.7559 156.034 78.7559V80.7559C191.341 80.7559 219.969 109.479 219.969 144.919H221.969ZM156.033 201.087C186.951 201.087 212.008 175.936 212.008 144.919H210.008C210.008 174.838 185.84 199.087 156.033 199.087V201.087ZM100.058 144.919C100.058 175.936 125.116 201.087 156.033 201.087V199.087C126.227 199.087 102.058 174.838 102.058 144.919H100.058ZM156.033 88.751C125.116 88.751 100.058 113.902 100.058 144.919H102.058C102.058 114.999 126.227 90.751 156.033 90.751V88.751ZM212.008 144.919C212.008 113.902 186.951 88.751 156.033 88.751V90.751C185.84 90.751 210.008 114.999 210.008 144.919H212.008Z" fill="#C4CEF0" mask="url(#path-19-inside-2_1782_17180)"/>
<g filter="url(#filter0_b_1782_17180)">
<path d="M156.034 200.086C186.396 200.086 211.009 175.386 211.009 144.918C211.009 114.45 186.396 89.75 156.034 89.75C125.672 89.75 101.059 114.45 101.059 144.918C101.059 175.386 125.672 200.086 156.034 200.086Z" fill="white"/>
</g>
<path d="M169.244 144.918L184.966 129.105C186.439 127.541 187.246 125.462 187.216 123.31C187.185 121.158 186.32 119.103 184.803 117.581C183.287 116.059 181.239 115.191 179.094 115.16C176.95 115.13 174.878 115.94 173.319 117.418L157.562 133.23L141.84 117.418C141.083 116.614 140.174 115.971 139.165 115.526C138.157 115.082 137.069 114.845 135.968 114.829C134.867 114.813 133.773 115.019 132.752 115.435C131.732 115.851 130.805 116.468 130.026 117.25C129.247 118.031 128.632 118.962 128.218 119.986C127.803 121.01 127.598 122.108 127.613 123.213C127.629 124.318 127.865 125.409 128.308 126.421C128.751 127.433 129.392 128.346 130.193 129.105L145.942 144.918L130.193 160.73C129.392 161.49 128.751 162.402 128.308 163.414C127.865 164.426 127.629 165.517 127.613 166.623C127.598 167.728 127.803 168.825 128.218 169.85C128.632 170.874 129.247 171.804 130.026 172.586C130.805 173.368 131.732 173.985 132.752 174.4C133.773 174.816 134.867 175.022 135.968 175.007C137.069 174.991 138.157 174.754 139.165 174.309C140.174 173.865 141.083 173.222 141.84 172.418L157.597 156.605L173.354 172.418C174.928 173.809 176.971 174.545 179.067 174.477C181.163 174.409 183.154 173.541 184.634 172.051C186.115 170.561 186.974 168.56 187.035 166.457C187.097 164.353 186.357 162.305 184.966 160.73L169.244 144.918Z" fill="#D6DFFF"/>
<path d="M113.296 212.994C113.812 210.848 116.865 210.848 117.381 212.994L119.342 221.146C119.527 221.912 120.125 222.511 120.891 222.697L129.043 224.671C131.185 225.19 131.185 228.236 129.043 228.755L120.891 230.73C120.125 230.916 119.527 231.514 119.342 232.281L117.381 240.433C116.865 242.579 113.812 242.579 113.296 240.433L111.335 232.281C111.151 231.514 110.553 230.916 109.787 230.73L101.634 228.755C99.4926 228.236 99.4926 225.19 101.634 224.671L109.787 222.697C110.553 222.511 111.151 221.912 111.335 221.146L113.296 212.994Z" fill="#AABAF3"/>
<path d="M25.8582 10.0194C26.3745 7.87319 29.4275 7.87319 29.9437 10.0194L31.9047 18.1713C32.089 18.9377 32.6868 19.5364 33.4528 19.7219L41.6052 21.6968C43.747 22.2156 43.747 25.2619 41.6052 25.7807L33.4528 27.7556C32.6868 27.9411 32.089 28.5398 31.9047 29.3062L29.9437 37.4581C29.4275 39.6043 26.3745 39.6043 25.8582 37.4581L23.8972 29.3062C23.7129 28.5398 23.1152 27.9411 22.3491 27.7556L14.1967 25.7807C12.0549 25.2619 12.0549 22.2156 14.1967 21.6968L22.3491 19.7219C23.1152 19.5364 23.7129 18.9377 23.8972 18.1713L25.8582 10.0194Z" fill="#AABAF3"/>
<path fill-rule="evenodd" clip-rule="evenodd" d="M118.623 11.7076C120.661 11.7076 122.312 10.0502 122.312 8.00567C122.312 5.96117 120.661 4.30377 118.623 4.30377C116.586 4.30377 114.934 5.96117 114.934 8.00567C114.934 10.0502 116.586 11.7076 118.623 11.7076ZM118.623 14.484C122.189 14.484 125.079 11.5836 125.079 8.00567C125.079 4.42779 122.189 1.52734 118.623 1.52734C115.058 1.52734 112.167 4.42779 112.167 8.00567C112.167 11.5836 115.058 14.484 118.623 14.484Z" fill="#AABAF3"/>
<path d="M233.29 113.48C232.957 112.171 234.161 110.993 235.456 111.358L245.006 114.051C246.301 114.416 246.716 116.051 245.753 116.994L238.655 123.947C237.692 124.89 236.073 124.433 235.74 123.125L233.29 113.48Z" fill="#AABAF3"/>
<path d="M17.2153 97.7063C18.5195 97.3744 19.6925 98.5836 19.3268 99.8829L16.631 109.462C16.2653 110.762 14.635 111.177 13.6965 110.209L6.77759 103.077C5.83911 102.109 6.29632 100.485 7.60055 100.153L17.2153 97.7063Z" fill="#AABAF3"/>
<path d="M193.144 225.624C194.449 225.292 195.622 226.502 195.256 227.801L192.56 237.38C192.194 238.68 190.564 239.095 189.626 238.127L182.707 230.995C181.768 230.027 182.225 228.403 183.53 228.071L193.144 225.624Z" fill="#AABAF3"/>
<path fill-rule="evenodd" clip-rule="evenodd" d="M241.879 65.6216C243.916 65.6216 245.568 63.9642 245.568 61.9197C245.568 59.8752 243.916 58.2178 241.879 58.2178C239.841 58.2178 238.19 59.8752 238.19 61.9197C238.19 63.9642 239.841 65.6216 241.879 65.6216ZM241.879 68.3981C245.444 68.3981 248.334 65.4976 248.334 61.9197C248.334 58.3419 245.444 55.4414 241.879 55.4414C238.313 55.4414 235.423 58.3419 235.423 61.9197C235.423 65.4976 238.313 68.3981 241.879 68.3981Z" fill="#AABAF3"/>
<defs>
<filter id="filter0_b_1782_17180" x="84.3837" y="73.0749" width="143.3" height="143.686" filterUnits="userSpaceOnUse" color-interpolation-filters="sRGB">
<feFlood flood-opacity="0" result="BackgroundImageFix"/>
<feGaussianBlur in="BackgroundImageFix" stdDeviation="8.33757"/>
<feComposite in2="SourceAlpha" operator="in" result="effect1_backgroundBlur_1782_17180"/>
<feBlend mode="normal" in="SourceGraphic" in2="effect1_backgroundBlur_1782_17180" result="shape"/>
</filter>
</defs>
</svg>
